{"accessors" : [{"bufferView" : 0, "byteOffset" : 0, "componentType" : 5123, "count" : 24264, "type" : "SCALAR", "max" : [20127], "min" : [0]}, {"bufferView" : 1, "byteOffset" : 0, "componentType" : 5126, "count" : 20128, "type" : "VEC3", "max" : [0.9647509455680847, 1.8742742538452148, 0.9647509455680847], "min" : [-0.9647509455680847, -1.0291237831115723, -0.9647509455680847], "name" : "POSITION"}, {"bufferView" : 1, "byteOffset" : 12, "componentType" : 5126, "count" : 20128, "type" : "VEC3", "max" : [0.9999161958694458, 1.0000044107437134, 0.9999161958694458], "min" : [-0.9999161958694458, -0.9998664855957031, -0.9999161958694458], "name" : "NORMAL"}, {"bufferView" : 1, "byteOffset" : 24, "componentType" : 5126, "count" : 20128, "type" : "VEC2", "max" : [0.9899019598960876, 0.9899019002914429], "min" : [0.01009809784591198, 0.5100980997085571], "name" : "TEXCOORD_0"}, {"bufferView" : 0, "byteOffset" : 48528, "componentType" : 5123, "count" : 6618, "type" : "SCALAR", "max" : [5514], "min" : [0]}, {"bufferView" : 2, "byteOffset" : 0, "componentType" : 5126, "count" : 5515, "type" : "VEC3", "max" : [0.36150091886520386, -1.0291237831115723, 0.36150097846984863], "min" : [-0.36150097846984863, -1.5878777503967285, -0.361501008272171], "name" : "POSITION"}, {"bufferView" : 2, "byteOffset" : 12, "componentType" : 5126, "count" : 5515, "type" : "VEC3", "max" : [0.999397873878479, 0.0889955535531044, 0.999397873878479], "min" : [-0.999397873878479, -0.9998272657394409, -0.999397873878479], "name" : "NORMAL"}, {"bufferView" : 2, "byteOffset" : 24, "componentType" : 5126, "count" : 5515, "type" : "VEC2", "max" : [0.8241106271743774, 0.8241105675697327], "min" : [0.6758894324302673, 0.6758894324302673], "name" : "TEXCOORD_0"}, {"bufferView" : 0, "byteOffset" : 61764, "componentType" : 5123, "count" : 2880, "type" : "SCALAR", "max" : [2431], "min" : [0]}, {"bufferView" : 3, "byteOffset" : 0, "componentType" : 5126, "count" : 2432, "type" : "VEC3", "max" : [0.9999997019767761, 1, 0.9999994039535522], "min" : [-0.9999990463256836, -1, -0.9999987483024597], "name" : "POSITION"}, {"bufferView" : 3, "byteOffset" : 12, "componentType" : 5126, "count" : 2432, "type" : "VEC3", "max" : [1.0000044107437134, 1.0000044107437134, 1.0000044107437134], "min" : [-1.0000044107437134, -1.0000044107437134, -1.0000044107437134], "name" : "NORMAL"}, {"bufferView" : 3, "byteOffset" : 24, "componentType" : 5126, "count" : 2432, "type" : "VEC2", "max" : [1.0000001192092896, 1], "min" : [0, 0], "name" : "TEXCOORD_0"}, {"bufferView" : 0, "byteOffset" : 67524, "componentType" : 5123, "count" : 2880, "type" : "SCALAR", "max" : [2431], "min" : [0]}, {"bufferView" : 4, "byteOffset" : 0, "componentType" : 5126, "count" : 2432, "type" : "VEC3", "max" : [0.9999997019767761, 1, 0.9999994039535522], "min" : [-0.9999990463256836, -1, -0.9999987483024597], "name" : "POSITION"}, {"bufferView" : 4, "byteOffset" : 12, "componentType" : 5126, "count" : 2432, "type" : "VEC3", "max" : [1.0000044107437134, 1.0000044107437134, 1.0000044107437134], "min" : [-1.0000044107437134, -1.0000044107437134, -1.0000044107437134], "name" : "NORMAL"}, {"bufferView" : 4, "byteOffset" : 24, "componentType" : 5126, "count" : 2432, "type" : "VEC2", "max" : [1.0000001192092896, 1], "min" : [0, 0], "name" : "TEXCOORD_0"}, {"bufferView" : 0, "byteOffset" : 73284, "componentType" : 5123, "count" : 2880, "type" : "SCALAR", "max" : [2431], "min" : [0]}, {"bufferView" : 5, "byteOffset" : 0, "componentType" : 5126, "count" : 2432, "type" : "VEC3", "max" : [0.9999997019767761, 1, 0.9999994039535522], "min" : [-0.9999990463256836, -1, -0.9999987483024597], "name" : "POSITION"}, {"bufferView" : 5, "byteOffset" : 12, "componentType" : 5126, "count" : 2432, "type" : "VEC3", "max" : [1.0000044107437134, 1.0000044107437134, 1.0000044107437134], "min" : [-1.0000044107437134, -1.0000044107437134, -1.0000044107437134], "name" : "NORMAL"}, {"bufferView" : 5, "byteOffset" : 24, "componentType" : 5126, "count" : 2432, "type" : "VEC2", "max" : [1.0000001192092896, 1], "min" : [0, 0], "name" : "TEXCOORD_0"}, {"bufferView" : 0, "byteOffset" : 79044, "componentType" : 5123, "count" : 2880, "type" : "SCALAR", "max" : [2431], "min" : [0]}, {"bufferView" : 6, "byteOffset" : 0, "componentType" : 5126, "count" : 2432, "type" : "VEC3", "max" : [0.9999997019767761, 1, 0.9999994039535522], "min" : [-0.9999990463256836, -1, -0.9999987483024597], "name" : "POSITION"}, {"bufferView" : 6, "byteOffset" : 12, "componentType" : 5126, "count" : 2432, "type" : "VEC3", "max" : [1.0000044107437134, 1.0000044107437134, 1.0000044107437134], "min" : [-1.0000044107437134, -1.0000044107437134, -1.0000044107437134], "name" : "NORMAL"}, {"bufferView" : 6, "byteOffset" : 24, "componentType" : 5126, "count" : 2432, "type" : "VEC2", "max" : [1.0000001192092896, 1], "min" : [0, 0], "name" : "TEXCOORD_0"}, {"bufferView" : 0, "byteOffset" : 84804, "componentType" : 5123, "count" : 2880, "type" : "SCALAR", "max" : [2431], "min" : [0]}, {"bufferView" : 7, "byteOffset" : 0, "componentType" : 5126, "count" : 2432, "type" : "VEC3", "max" : [0.9999997019767761, 1, 0.9999994039535522], "min" : [-0.9999990463256836, -1, -0.9999987483024597], "name" : "POSITION"}, {"bufferView" : 7, "byteOffset" : 12, "componentType" : 5126, "count" : 2432, "type" : "VEC3", "max" : [1.0000044107437134, 1.0000044107437134, 1.0000044107437134], "min" : [-1.0000044107437134, -1.0000044107437134, -1.0000044107437134], "name" : "NORMAL"}, {"bufferView" : 7, "byteOffset" : 24, "componentType" : 5126, "count" : 2432, "type" : "VEC2", "max" : [1.0000001192092896, 1], "min" : [0, 0], "name" : "TEXCOORD_0"}, {"bufferView" : 0, "byteOffset" : 90564, "componentType" : 5123, "count" : 168, "type" : "SCALAR", "max" : [141], "min" : [0]}, {"bufferView" : 8, "byteOffset" : 0, "componentType" : 5126, "count" : 142, "type" : "VEC3", "max" : [0.7008817195892334, 0.01573931984603405, 0.623811662197113], "min" : [-0.6606215834617615, -0.013994138687849045, -0.6449175477027893], "name" : "POSITION"}, {"bufferView" : 8, "byteOffset" : 12, "componentType" : 5126, "count" : 142, "type" : "VEC3", "max" : [0.9601290225982666, 1.0000044107437134, 0.8321818113327026], "min" : [-0.9598225951194763, -1.0000042915344238, -1.0000029802322388], "name" : "NORMAL"}, {"bufferView" : 8, "byteOffset" : 24, "componentType" : 5126, "count" : 142, "type" : "VEC2", "max" : [0.8497245907783508, 0.8088231086730957], "min" : [0.1714714765548706, 0.17862415313720703], "name" : "TEXCOORD_0"}, {"bufferView" : 0, "byteOffset" : 90900, "componentType" : 5123, "count" : 168, "type" : "SCALAR", "max" : [141], "min" : [0]}, {"bufferView" : 9, "byteOffset" : 0, "componentType" : 5126, "count" : 142, "type" : "VEC3", "max" : [0.7008817195892334, 0.01573931984603405, 0.623811662197113], "min" : [-0.6606215834617615, -0.013994138687849045, -0.6449175477027893], "name" : "POSITION"}, {"bufferView" : 9, "byteOffset" : 12, "componentType" : 5126, "count" : 142, "type" : "VEC3", "max" : [0.9601290225982666, 1.0000044107437134, 0.8321818113327026], "min" : [-0.9598225951194763, -1.0000042915344238, -1.0000029802322388], "name" : "NORMAL"}, {"bufferView" : 9, "byteOffset" : 24, "componentType" : 5126, "count" : 142, "type" : "VEC2", "max" : [0.8497245907783508, 0.8088231086730957], "min" : [0.1714714765548706, 0.17862415313720703], "name" : "TEXCOORD_0"}, {"bufferView" : 0, "byteOffset" : 91236, "componentType" : 5123, "count" : 168, "type" : "SCALAR", "max" : [141], "min" : [0]}, {"bufferView" : 10, "byteOffset" : 0, "componentType" : 5126, "count" : 142, "type" : "VEC3", "max" : [0.7008817195892334, 0.01573931984603405, 0.623811662197113], "min" : [-0.6606215834617615, -0.013994138687849045, -0.6449175477027893], "name" : "POSITION"}, {"bufferView" : 10, "byteOffset" : 12, "componentType" : 5126, "count" : 142, "type" : "VEC3", "max" : [0.9601290225982666, 1.0000044107437134, 0.8321818113327026], "min" : [-0.9598225951194763, -1.0000042915344238, -1.0000029802322388], "name" : "NORMAL"}, {"bufferView" : 10, "byteOffset" : 24, "componentType" : 5126, "count" : 142, "type" : "VEC2", "max" : [0.8497245907783508, 0.8088231086730957], "min" : [0.1714714765548706, 0.17862415313720703], "name" : "TEXCOORD_0"}, {"bufferView" : 0, "byteOffset" : 91572, "componentType" : 5123, "count" : 168, "type" : "SCALAR", "max" : [141], "min" : [0]}, {"bufferView" : 11, "byteOffset" : 0, "componentType" : 5126, "count" : 142, "type" : "VEC3", "max" : [0.7008817195892334, 0.01573931984603405, 0.623811662197113], "min" : [-0.6606215834617615, -0.013994138687849045, -0.6449175477027893], "name" : "POSITION"}, {"bufferView" : 11, "byteOffset" : 12, "componentType" : 5126, "count" : 142, "type" : "VEC3", "max" : [0.9601290225982666, 1.0000044107437134, 0.8321818113327026], "min" : [-0.9598225951194763, -1.0000042915344238, -1.0000029802322388], "name" : "NORMAL"}, {"bufferView" : 11, "byteOffset" : 24, "componentType" : 5126, "count" : 142, "type" : "VEC2", "max" : [0.8497245907783508, 0.8088231086730957], "min" : [0.1714714765548706, 0.17862415313720703], "name" : "TEXCOORD_0"}, {"bufferView" : 0, "byteOffset" : 91908, "componentType" : 5123, "count" : 168, "type" : "SCALAR", "max" : [141], "min" : [0]}, {"bufferView" : 12, "byteOffset" : 0, "componentType" : 5126, "count" : 142, "type" : "VEC3", "max" : [0.7008817195892334, 0.01573931984603405, 0.623811662197113], "min" : [-0.6606215834617615, -0.013994138687849045, -0.6449175477027893], "name" : "POSITION"}, {"bufferView" : 12, "byteOffset" : 12, "componentType" : 5126, "count" : 142, "type" : "VEC3", "max" : [0.9601290225982666, 1.0000044107437134, 0.8321818113327026], "min" : [-0.9598225951194763, -1.0000042915344238, -1.0000029802322388], "name" : "NORMAL"}, {"bufferView" : 12, "byteOffset" : 24, "componentType" : 5126, "count" : 142, "type" : "VEC2", "max" : [0.8497245907783508, 0.8088231086730957], "min" : [0.1714714765548706, 0.17862415313720703], "name" : "TEXCOORD_0"}, {"bufferView" : 0, "byteOffset" : 92244, "componentType" : 5123, "count" : 168, "type" : "SCALAR", "max" : [141], "min" : [0]}, {"bufferView" : 13, "byteOffset" : 0, "componentType" : 5126, "count" : 142, "type" : "VEC3", "max" : [0.7008817195892334, 0.01573931984603405, 0.623811662197113], "min" : [-0.6606215834617615, -0.013994138687849045, -0.6449175477027893], "name" : "POSITION"}, {"bufferView" : 13, "byteOffset" : 12, "componentType" : 5126, "count" : 142, "type" : "VEC3", "max" : [0.9601290225982666, 1.0000044107437134, 0.8321818113327026], "min" : [-0.9598225951194763, -1.0000042915344238, -1.0000029802322388], "name" : "NORMAL"}, {"bufferView" : 13, "byteOffset" : 24, "componentType" : 5126, "count" : 142, "type" : "VEC2", "max" : [0.8497245907783508, 0.8088231086730957], "min" : [0.1714714765548706, 0.17862415313720703], "name" : "TEXCOORD_0"}], "asset" : {"generator" : "Aspose.3D 22.10", "version" : "2.0"}, "buffers" : [{"uri" : "data:application/octet-stream;base64,", "byteLength" : 1573916}], "bufferViews" : [{"buffer" : 0, "byteOffset" : 0, "byteLength" : 92580, "target" : 34963}, {"buffer" : 0, "byteOffset" : 92584, "byteLength" : 776448, "byteStride" : 32, "target" : 34962}, {"buffer" : 0, "byteOffset" : 869036, "byteLength" : 211776, "byteStride" : 32, "target" : 34962}, {"buffer" : 0, "byteOffset" : 1080816, "byteLength" : 92160, "byteStride" : 32, "target" : 34962}, {"buffer" : 0, "byteOffset" : 1172980, "byteLength" : 92160, "byteStride" : 32, "target" : 34962}, {"buffer" : 0, "byteOffset" : 1265144, "byteLength" : 92160, "byteStride" : 32, "target" : 34962}, {"buffer" : 0, "byteOffset" : 1357308, "byteLength" : 92160, "byteStride" : 32, "target" : 34962}, {"buffer" : 0, "byteOffset" : 1449472, "byteLength" : 92160, "byteStride" : 32, "target" : 34962}, {"buffer" : 0, "byteOffset" : 1541636, "byteLength" : 5376, "byteStride" : 32, "target" : 34962}, {"buffer" : 0, "byteOffset" : 1547016, "byteLength" : 5376, "byteStride" : 32, "target" : 34962}, {"buffer" : 0, "byteOffset" : 1552396, "byteLength" : 5376, "byteStride" : 32, "target" : 34962}, {"buffer" : 0, "byteOffset" : 1557776, "byteLength" : 5376, "byteStride" : 32, "target" : 34962}, {"buffer" : 0, "byteOffset" : 1563156, "byteLength" : 5376, "byteStride" : 32, "target" : 34962}, {"buffer" : 0, "byteOffset" : 1568536, "byteLength" : 5376, "byteStride" : 32, "target" : 34962}], "materials" : [{"name" : "C Tree", "pbrMetallicRoughness" : {"baseColorFactor" : [0.01257211435586214, 0.44797849655151367, 0, 1], "metallicFactor" : 0, "roughnessFactor" : 0.39855071902275085}, "emissiveFactor" : [0, 0, 0], "alphaMode" : "OPAQUE", "doubleSided" : true}, {"name" : "C tree 1", "pbrMetallicRoughness" : {"baseColorFactor" : [0.3263743221759796, 0.042673397809267044, 0.0256357342004776, 1], "metallicFactor" : 0, "roughnessFactor" : 1}, "emissiveFactor" : [0, 0, 0], "alphaMode" : "OPAQUE", "doubleSided" : true}, {"name" : "Color 1", "pbrMetallicRoughness" : {"baseColorFactor" : [0.8000000715255737, 0.004904175642877817, 0.007605144288390875, 1], "metallicFactor" : 1, "roughnessFactor" : 0}, "emissiveFactor" : [0, 0, 0], "alphaMode" : "OPAQUE", "doubleSided" : true}, {"name" : "Color 2", "pbrMetallicRoughness" : {"baseColorFactor" : [0.0030309620779007673, 0, 0.8000000715255737, 1], "metallicFactor" : 1, "roughnessFactor" : 0}, "emissiveFactor" : [0, 0, 0], "alphaMode" : "OPAQUE", "doubleSided" : true}, {"name" : "Color 3", "pbrMetallicRoughness" : {"baseColorFactor" : [0.8000000715255737, 0.7321476340293884, 0, 1], "metallicFactor" : 1, "roughnessFactor" : 0}, "emissiveFactor" : [0, 0, 0], "alphaMode" : "OPAQUE", "doubleSided" : true}, {"name" : "Color 4", "pbrMetallicRoughness" : {"baseColorFactor" : [0.8000000715255737, 0.00439276359975338, 0.6759684681892395, 1], "metallicFactor" : 1, "roughnessFactor" : 0}, "emissiveFactor" : [0, 0, 0], "alphaMode" : "OPAQUE", "doubleSided" : true}, {"name" : "Color 5", "pbrMetallicRoughness" : {"baseColorFactor" : [0.800000011920929, 0.800000011920929, 0.800000011920929, 1], "metallicFactor" : 1, "roughnessFactor" : 0}, "emissiveFactor" : [0, 0, 0], "alphaMode" : "OPAQUE", "doubleSided" : true}, {"name" : "Color 1", "pbrMetallicRoughness" : {"baseColorFactor" : [0.8000000715255737, 0.004904175642877817, 0.007605144288390875, 1], "metallicFactor" : 1, "roughnessFactor" : 0}, "emissiveFactor" : [0, 0, 0], "alphaMode" : "OPAQUE", "doubleSided" : true}, {"name" : "Color 1", "pbrMetallicRoughness" : {"baseColorFactor" : [0.8000000715255737, 0.004904175642877817, 0.007605144288390875, 1], "metallicFactor" : 1, "roughnessFactor" : 0}, "emissiveFactor" : [0, 0, 0], "alphaMode" : "OPAQUE", "doubleSided" : true}, {"name" : "Color 2", "pbrMetallicRoughness" : {"baseColorFactor" : [0.0030309620779007673, 0, 0.8000000715255737, 1], "metallicFactor" : 1, "roughnessFactor" : 0}, "emissiveFactor" : [0, 0, 0], "alphaMode" : "OPAQUE", "doubleSided" : true}, {"name" : "Color 3", "pbrMetallicRoughness" : {"baseColorFactor" : [0.8000000715255737, 0.7321476340293884, 0, 1], "metallicFactor" : 1, "roughnessFactor" : 0}, "emissiveFactor" : [0, 0, 0], "alphaMode" : "OPAQUE", "doubleSided" : true}, {"name" : "Color 4", "pbrMetallicRoughness" : {"baseColorFactor" : [0.8000000715255737, 0.00439276359975338, 0.6759684681892395, 1], "metallicFactor" : 1, "roughnessFactor" : 0}, "emissiveFactor" : [0, 0, 0], "alphaMode" : "OPAQUE", "doubleSided" : true}, {"name" : "Color 5", "pbrMetallicRoughness" : {"baseColorFactor" : [0.800000011920929, 0.800000011920929, 0.800000011920929, 1], "metallicFactor" : 1, "roughnessFactor" : 0}, "emissiveFactor" : [0, 0, 0], "alphaMode" : "OPAQUE", "doubleSided" : true}], "meshes" : [{"primitives" : [{"attributes" : {"POSITION" : 1, "NORMAL" : 2, "TEXCOORD_0" : 3}, "indices" : 0, "material" : 0, "mode" : 4}, {"attributes" : {"POSITION" : 5, "NORMAL" : 6, "TEXCOORD_0" : 7}, "indices" : 4, "material" : 1, "mode" : 4}]}, {"primitives" : [{"attributes" : {"POSITION" : 9, "NORMAL" : 10, "TEXCOORD_0" : 11}, "indices" : 8, "material" : 2, "mode" : 4}]}, {"primitives" : [{"attributes" : {"POSITION" : 13, "NORMAL" : 14, "TEXCOORD_0" : 15}, "indices" : 12, "material" : 3, "mode" : 4}]}, {"primitives" : [{"attributes" : {"POSITION" : 17, "NORMAL" : 18, "TEXCOORD_0" : 19}, "indices" : 16, "material" : 4, "mode" : 4}]}, {"primitives" : [{"attributes" : {"POSITION" : 21, "NORMAL" : 22, "TEXCOORD_0" : 23}, "indices" : 20, "material" : 5, "mode" : 4}]}, {"primitives" : [{"attributes" : {"POSITION" : 25, "NORMAL" : 26, "TEXCOORD_0" : 27}, "indices" : 24, "material" : 6, "mode" : 4}]}, {"primitives" : [{"attributes" : {"POSITION" : 29, "NORMAL" : 30, "TEXCOORD_0" : 31}, "indices" : 28, "material" : 7, "mode" : 4}]}, {"primitives" : [{"attributes" : {"POSITION" : 33, "NORMAL" : 34, "TEXCOORD_0" : 35}, "indices" : 32, "material" : 8, "mode" : 4}]}, {"primitives" : [{"attributes" : {"POSITION" : 37, "NORMAL" : 38, "TEXCOORD_0" : 39}, "indices" : 36, "material" : 9, "mode" : 4}]}, {"primitives" : [{"attributes" : {"POSITION" : 41, "NORMAL" : 42, "TEXCOORD_0" : 43}, "indices" : 40, "material" : 10, "mode" : 4}]}, {"primitives" : [{"attributes" : {"POSITION" : 45, "NORMAL" : 46, "TEXCOORD_0" : 47}, "indices" : 44, "material" : 11, "mode" : 4}]}, {"primitives" : [{"attributes" : {"POSITION" : 49, "NORMAL" : 50, "TEXCOORD_0" : 51}, "indices" : 48, "material" : 12, "mode" : 4}]}], "nodes" : [{"matrix" : [1, 0, 0, 0, 0, 1, 0, 0, 0, 0, 1, 0, 0, 1.7113242149353027, 0, 1], "mesh" : 0, "name" : "Cone"}, {"matrix" : [0.19425970315933228, 0, 0, 0, 0, 0.19425970315933228, 0, 0, 0, 0, 0.19425970315933228, 0, -10.663822174072266, 0, 0, 1], "mesh" : 1, "name" : "Sphere"}, {"matrix" : [0.19425970315933228, 0, 0, 0, 0, 0.19425970315933228, 0, 0, 0, 0, 0.19425970315933228, 0, -10.234606742858887, 0, 0, 1], "mesh" : 2, "name" : "Sphere.001"}, {"matrix" : [0.19425970315933228, 0, 0, 0, 0, 0.19425970315933228, 0, 0, 0, 0, 0.19425970315933228, 0, -9.795619010925293, 0, 0, 1], "mesh" : 3, "name" : "Sphere.002"}, {"matrix" : [0.19425970315933228, 0, 0, 0, 0, 0.19425970315933228, 0, 0, 0, 0, 0.19425970315933228, 0, -9.36359977722168, 0, 0, 1], "mesh" : 4, "name" : "Sphere.003"}, {"matrix" : [0.19425970315933228, 0, 0, 0, 0, 0.19425970315933228, 0, 0, 0, 0, 0.19425970315933228, 0, -8.903708457946777, 0, 0, 1], "mesh" : 5, "name" : "Sphere.004"}, {"matrix" : [-0.4164233670781749, -0.852193703284579, 0, 0, 2.2012102055910314, -1.0756185617496408, 0, 0, 0, 0, 0.9484947919845581, 0, -0.19275549054145813, 3.2561416625976562, -0.04637277498841286, 1], "mesh" : 6, "name" : "Plane"}, {"matrix" : [0.47697770595550537, 0, 0, 0, 0, 1.232029914855957, 0, 0, 0, 0, 0.47697770595550537, 0, -8.287660598754883, 0, 0, 1], "mesh" : 7, "name" : "Plane.001"}, {"matrix" : [0.47697770595550537, 0, 0, 0, 0, 1.232029914855957, 0, 0, 0, 0, 0.47697770595550537, 0, -7.630431175231934, 0, 0, 1], "mesh" : 8, "name" : "Plane.002"}, {"matrix" : [0.47697770595550537, 0, 0, 0, 0, 1.232029914855957, 0, 0, 0, 0, 0.47697770595550537, 0, -6.948116779327393, 0, 0, 1], "mesh" : 9, "name" : "Plane.003"}, {"matrix" : [0.47697770595550537, 0, 0, 0, 0, 1.232029914855957, 0, 0, 0, 0, 0.47697770595550537, 0, -6.2357001304626465, 0, 0, 1], "mesh" : 10, "name" : "Plane.004"}, {"matrix" : [0.47697770595550537, 0, 0, 0, 0, 1.232029914855957, 0, 0, 0, 0, 0.47697770595550537, 0, -5.533317565917969, 0, 0, 1], "mesh" : 11, "name" : "Plane.005"}], "scene" : 0, "scenes" : [{"nodes" : [0, 1, 2, 3, 4, 5, 6, 7, 8, 9, 10, 11]}]}